<svg id="Layer_1" data-name="Layer 1" xmlns="http://www.w3.org/2000/svg" viewBox="0 0 150 35.23"><defs><style>.cls-1{fill:#270a44;}.cls-2{fill:#f700fd;}</style></defs><path class="cls-1" d="M9.43.83c.85-.9,2.2-.78,3.32-.83C17.49.14,22.23.15,27,0a6.08,6.08,0,0,1,3,.49,8,8,0,0,1,1.89,2.76c4.62,8.15,9.44,16.2,13.95,24.41.43.77,1,1.69,2,1.69,3.86,0,7.72,0,11.58,0,1.12,0,1.66-1.08,2.14-1.9q2.19-4,4.6-8c.45-.79,1.09-1.75.56-2.66C64.78,13.55,62.84,10.3,61,7a2.12,2.12,0,0,0-2.13-1.11c-3.31,0-6.62.09-9.93,0-1,0-2.15,0-2.65.94-1.66,3-3.38,5.92-5.1,8.86-1-1.77-2-3.56-3.06-5.32-.12-.22-.34-.49-.13-.73q2.38-4.09,4.7-8.23C43.41.06,45,0,46.32,0c4,.1,7.93.17,11.9.06a26.51,26.51,0,0,1,4.63.1,2.66,2.66,0,0,1,1.76,1.4c2.77,5,5.63,9.89,8.52,14.78.88,1.47-.2,3-.93,4.28q-3.57,5.82-6.83,11.84c-.67,1.18-1.46,2.7-3,2.71q-7.44-.08-14.88,0A12.62,12.62,0,0,1,44.05,35c-1-.39-1.55-1.46-2.1-2.35-4.57-8.32-9.44-16.48-14.12-24.74-.46-.9-1-2.07-2.18-2-3.31,0-6.61.11-9.92,0-1.08,0-2.52-.19-3.13,1q-2.82,5-5.75,10c-.55.9.06,1.89.52,2.68q2.42,3.91,4.59,8c.49.81,1,1.94,2.12,1.93,3.41,0,6.83-.05,10.25,0A3.83,3.83,0,0,0,26.7,29a7.89,7.89,0,0,0,1.35-2c1.36-2.51,2.81-5,4.24-7.45,1,1.85,2.12,3.67,3.16,5.51.26.31,0,.63-.17.92-1.52,2.57-3,5.17-4.45,7.79a3.11,3.11,0,0,1-3,1.41c-4.35,0-8.71-.17-13.06,0A19.66,19.66,0,0,1,10.47,35c-1.33-.36-1.79-1.81-2.42-2.87Q4.27,25.47.36,18.86a2.3,2.3,0,0,1,0-2.47Q4.08,10.09,7.7,3.72A18.26,18.26,0,0,1,9.43.83Z" transform="translate(0)"/><path class="cls-1" d="M17.31,9.57h5.17c0,1.56,0,3.11,0,4.67L19.9,16.83l-2.59-2.59C17.31,12.68,17.3,11.13,17.31,9.57Z" transform="translate(0)"/><path class="cls-1" d="M11.86,15h4.66c.86.86,1.71,1.73,2.59,2.58-.84.88-1.73,1.73-2.58,2.61H11.85C11.86,18.48,11.85,16.75,11.86,15Z" transform="translate(0)"/><path class="cls-1" d="M20.69,17.61c.87-.86,1.73-1.75,2.61-2.6,1.54,0,3.09,0,4.63,0v5.19c-1.53,0-3.06.05-4.59,0C22.38,19.42,21.57,18.47,20.69,17.61Z" transform="translate(0)"/><path class="cls-1" d="M19.91,18.41c.86.86,1.74,1.72,2.58,2.61,0,1.55,0,3.1,0,4.65H17.31c0-1.56,0-3.11,0-4.67C18.16,20.12,19.05,19.28,19.91,18.41Z" transform="translate(0)"/><path class="cls-1" d="M53,9.38A2.89,2.89,0,0,1,56.19,11,2.85,2.85,0,1,1,53,9.38Z" transform="translate(0)"/><path class="cls-2" d="M47.7,14.82a2.84,2.84,0,1,1,.73,5.63,2.84,2.84,0,0,1-.73-5.63Z" transform="translate(0)"/><path class="cls-2" d="M58.44,14.82a2.87,2.87,0,1,1-1.54,4.71A2.88,2.88,0,0,1,58.44,14.82Z" transform="translate(0)"/><path class="cls-1" d="M53,20.28a2.85,2.85,0,1,1-2.21,2.39A2.86,2.86,0,0,1,53,20.28Z" transform="translate(0)"/><path class="cls-1" d="M76.45,4.59h2.84V16H76.45Z" transform="translate(0)"/><path class="cls-1" d="M83.23,16H80.39V4.6h8.52l2.84,2.86V16H88.91V7.44H83.23Z" transform="translate(0)"/><path class="cls-1" d="M93.13,4.57h11.36V7.41H96V8.85h8.52v2.83H96v4.26H93.13V4.57Z" transform="translate(0)"/><path class="cls-1" d="M105.91,4.59h2.84V16h-2.84Z" transform="translate(0)"/><path class="cls-1" d="M112.69,16h-2.84V4.6h8.52l2.84,2.86V16h-2.84V7.44h-5.68Z" transform="translate(0)"/><path class="cls-1" d="M122.6,4.59h2.84V16H122.6Z" transform="translate(0)"/><path class="cls-1" d="M132.78,16h-2.84V7.43H126.5V4.59h11.36L135,7.43h-2.24Z" transform="translate(0)"/><path class="cls-1" d="M145.7,16h-2.84V11l-4.25-4.79V4.59h2.73l3,3.31,3-3.31H150V6.24l-4.3,4.81Z" transform="translate(0)"/><path class="cls-2" d="M85.43,26.72H82.57v-3h5.86v7.48h-12v-12h9l3,3h-9v6h6Z" transform="translate(0)"/><path class="cls-2" d="M94.81,26.72v4.49h-3v-12l3,3v1.48h6v-1.5h-6v-3h9v15l-3-3V26.72Z" transform="translate(0)"/><path class="cls-2" d="M110.25,31.23h-3v-12h12v12h-3v-9h-1.5v9h-3v-9h-1.5Z" transform="translate(0)"/><path class="cls-2" d="M134.6,28.24v3h-12v-12h12v3h-9v1.49h9v3h-9v1.5Z" transform="translate(0)"/><path class="cls-2" d="M138,26.76V19.25h12v3h-9v1.51h9v7.49H138v-3h9v-1.5Z" transform="translate(0)"/></svg>